<svg id="visual" viewBox="0 0 1280 1280" width="1280" height="1280" xmlns="http://www.w3.org/2000/svg" xmlns:xlink="http://www.w3.org/1999/xlink" version="1.1"><g transform="translate(697.375295311519 689.0917123108786)"><path d="M296 -440.7C386.7 -341.5 465.3 -259.1 512.3 -156.6C559.2 -54 574.4 68.8 542.1 178.5C509.7 288.2 429.7 384.8 331.4 458.3C233.2 531.9 116.6 582.5 9.3 569.6C-98 556.8 -195.9 480.7 -322.7 416.4C-449.5 352.1 -605.2 299.6 -655 200.1C-704.7 100.6 -648.6 -45.9 -582.4 -170.5C-516.1 -295 -439.7 -397.5 -340.9 -494.1C-242.2 -590.6 -121.1 -681.3 -9.2 -668.6C102.7 -656 205.3 -539.9 296 -440.7" fill="#f4b400"></path></g></svg>